<?xml version="1.0" standalone="no"?>
<!DOCTYPE svg PUBLIC "-//W3C//DTD SVG 20010904//EN"
 "http://www.w3.org/TR/2001/REC-SVG-20010904/DTD/svg10.dtd">
<svg version="1.0" xmlns="http://www.w3.org/2000/svg"
 width="950.000000pt" height="416.000000pt" viewBox="0 0 950.000000 416.000000"
 preserveAspectRatio="xMidYMid meet">

<g transform="translate(0.000000,416.000000) scale(0.100000,-0.100000)"
fill="#000000" stroke="none">
<path d="M2021 3963 l-22 -18 3 -465 3 -465 31 -65 c28 -58 124 -170 146 -170
4 0 8 -101 8 -224 l0 -224 -260 6 -260 5 0 -107 0 -106 194 0 c106 0 221 -3
255 -6 l61 -7 0 -239 c0 -218 -2 -239 -17 -246 -10 -3 -151 -7 -313 -7 l-295
0 -6 320 c-4 176 -9 452 -12 613 l-6 292 47 24 c95 48 192 176 235 311 57 175
32 409 -58 560 -81 134 -187 207 -310 213 -39 2 -89 -1 -112 -7 -68 -19 -159
-86 -209 -156 -182 -255 -158 -645 52 -852 34 -33 78 -67 98 -74 l36 -13 0
-268 0 -268 -22 -4 c-13 -2 -88 -14 -168 -26 -340 -51 -609 -147 -736 -262
-81 -75 -88 -96 -81 -262 15 -356 150 -659 407 -916 129 -129 248 -214 405
-290 235 -114 415 -154 690 -154 275 0 455 40 690 154 157 76 276 161 405 290
256 256 391 558 407 915 7 167 0 188 -81 263 -92 83 -244 152 -461 207 -71 18
-149 36 -172 40 l-43 7 0 -105 0 -105 96 -22 c157 -36 330 -98 407 -147 39
-24 40 -26 21 -40 -73 -55 -295 -133 -493 -173 -80 -16 -146 -28 -147 -27 -1
1 -5 250 -9 552 l-8 551 66 62 c44 43 74 82 93 125 l29 62 3 465 3 465 -22 18
c-24 19 -37 21 -59 7 -13 -8 -16 -71 -20 -431 -4 -379 -7 -423 -22 -432 -12
-8 -21 -7 -32 2 -14 12 -16 62 -16 427 l0 413 -22 15 c-26 18 -37 19 -58 6
-13 -8 -16 -71 -20 -431 -4 -379 -7 -423 -22 -432 -12 -8 -21 -7 -32 2 -14 12
-16 62 -16 427 0 362 -2 415 -16 428 -19 20 -34 20 -62 0 l-22 -15 0 -413 c0
-365 -2 -415 -16 -427 -11 -9 -20 -10 -32 -2 -15 9 -18 53 -22 432 -4 360 -7
423 -20 431 -22 14 -35 12 -59 -7z m-726 -2222 l-7 -93 -57 7 c-244 28 -596
134 -695 208 -19 14 -18 16 21 40 117 74 371 151 618 186 l120 17 3 -135 c2
-75 0 -178 -3 -230z"/>
<path d="M6512 1973 c1 -44 2 -45 5 -10 l4 37 195 0 c123 0 194 4 194 10 0 6
-73 10 -200 10 l-200 0 2 -47z"/>
<path d="M3470 1994 c0 -3 38 -76 85 -163 l85 -158 0 -106 0 -107 65 0 65 0 0
106 0 105 85 155 c47 85 85 159 85 164 0 6 -28 10 -63 10 l-63 0 -53 -109 -54
-108 -53 108 -53 109 -66 0 c-36 0 -65 -3 -65 -6z"/>
<path d="M7654 1900 c-36 -11 -69 -44 -59 -60 4 -7 15 -4 34 9 57 41 139 38
192 -6 l30 -26 22 21 c45 42 103 52 171 27 l39 -14 -20 20 c-45 45 -158 44
-204 -2 -20 -20 -39 -25 -39 -9 0 29 -112 56 -166 40z"/>
<path d="M8394 1899 c-36 -10 -69 -43 -59 -59 4 -7 15 -4 32 10 52 41 140 38
192 -6 30 -25 30 -25 50 -5 44 44 106 49 196 17 17 -7 17 -5 -3 13 -54 47
-146 47 -206 0 l-27 -21 -23 21 c-23 21 -77 42 -106 40 -8 0 -29 -5 -46 -10z"/>
<path d="M6992 1733 l2 -168 3 153 4 152 44 0 c33 0 45 4 45 15 0 11 -12 15
-50 15 l-50 0 2 -167z"/>
<path d="M7248 1759 l-3 -141 -29 -25 c-21 -18 -38 -24 -58 -21 -35 6 -32 -13
5 -26 31 -11 73 13 87 50 6 14 10 81 10 150 l0 124 50 0 c38 0 50 4 50 15 0
11 -13 15 -54 15 l-54 0 -4 -141z"/>
<path d="M7482 1693 l3 -208 2 193 3 192 41 0 c55 0 47 24 -9 28 l-42 3 2
-208z"/>
<path d="M8222 1693 l3 -208 2 193 3 192 40 0 c31 0 38 3 34 15 -4 10 -20 15
-45 15 l-39 0 2 -207z"/>
<path d="M8902 1888 c3 -8 27 -14 61 -16 46 -2 57 0 57 13 0 12 -13 15 -61 15
-44 0 -60 -3 -57 -12z"/>
<path d="M9162 1772 c-43 -132 -48 -152 -34 -152 5 0 26 56 48 124 l39 125 49
3 c74 5 73 28 -1 28 l-59 0 -42 -128z"/>
<path d="M4660 1869 c-14 -6 -36 -20 -48 -32 -17 -16 -23 -18 -22 -7 5 36 0
40 -50 40 l-50 0 0 -205 0 -205 60 0 60 0 1 98 c0 133 11 191 39 214 29 23 45
23 70 -2 18 -18 20 -33 20 -165 l0 -145 64 0 64 0 4 141 c3 140 3 141 31 165
34 29 38 29 68 5 23 -18 24 -26 27 -165 l3 -146 66 0 65 0 -4 163 c-4 189 -13
215 -78 241 -69 27 -140 18 -186 -25 -19 -18 -22 -18 -28 -4 -14 36 -119 57
-176 34z"/>
<path d="M5384 1861 c-23 -11 -44 -25 -47 -32 -3 -8 -6 -2 -6 14 -1 26 -3 27
-56 27 l-55 0 0 -205 0 -205 65 0 65 0 0 113 c0 61 5 129 11 150 18 67 88 87
110 30 5 -13 9 -85 9 -159 l0 -134 65 0 65 0 0 130 c0 143 11 183 52 193 34 9
64 -16 71 -60 4 -21 7 -89 7 -150 l0 -113 60 0 60 0 0 163 c0 109 -4 170 -13
186 -38 75 -165 95 -235 36 -27 -23 -29 -23 -40 -5 -13 21 -70 40 -117 40 -16
0 -49 -9 -71 -19z"/>
<path d="M6654 1685 c0 -110 2 -156 3 -103 2 53 2 143 0 200 -1 57 -3 13 -3
-97z"/>
<path d="M3990 1714 c0 -185 9 -216 74 -245 67 -30 161 -19 190 23 15 21 15
21 22 -6 6 -24 11 -26 55 -26 l49 0 0 205 0 205 -60 0 -60 0 0 -107 c-1 -162
-14 -204 -72 -218 -19 -5 -32 -1 -47 14 -19 19 -21 32 -21 166 l0 145 -65 0
-65 0 0 -156z"/>
<path d="M5910 1863 c0 -5 35 -97 79 -205 73 -182 77 -197 66 -225 -17 -39
-51 -63 -92 -63 -33 0 -33 -1 -33 -46 l0 -46 69 4 c56 3 75 9 105 31 20 16 42
41 50 56 17 33 186 480 186 493 0 4 -29 8 -64 8 l-65 0 -45 -137 c-25 -76 -46
-129 -46 -118 0 12 -17 72 -38 135 l-39 115 -66 3 c-37 2 -67 -1 -67 -5z"/>
<path d="M7994 1620 c0 -74 1 -105 3 -67 2 37 2 97 0 135 -2 37 -3 6 -3 -68z"/>
<path d="M8471 1623 c-1 -83 3 -133 9 -133 12 0 12 203 0 240 -5 15 -8 -26 -9
-107z"/>
<path d="M8734 1620 c0 -74 1 -105 3 -67 2 37 2 97 0 135 -2 37 -3 6 -3 -68z"/>
<path d="M7744 1610 c0 -69 1 -97 3 -62 2 34 2 90 0 125 -2 34 -3 6 -3 -63z"/>
<path d="M9050 1466 c0 -7 -12 -25 -26 -40 -20 -19 -37 -26 -65 -26 l-39 0 1
-42 c2 -30 3 -35 6 -15 4 23 9 27 39 27 20 0 44 5 55 10 33 18 65 100 39 100
-5 0 -10 -6 -10 -14z"/>
</g>
</svg>
